<svg viewBox="0 0 103.999 104" xmlns="http://www.w3.org/2000/svg" xmlns:xlink="http://www.w3.org/1999/xlink" width="103.999023" height="104.000000" fill="none" customFrame="#000000">
	<defs>
		<g id="pixso_custom_effect_0">
			<effect x="0.000000" y="4.000000" visibility="visible" fill="rgb(0,0,0)" fill-opacity="0.25" effectType="dropShadow" stdDeviation="4" radius="0" />
		</g>
		<filter id="filter_0" width="103.999023" height="104.000000" x="0.000000" y="0.000000" filterUnits="userSpaceOnUse" customEffect="url(#pixso_custom_effect_0)" color-interpolation-filters="sRGB">
			<feFlood flood-opacity="0" result="BackgroundImageFix" />
			<feColorMatrix result="hardAlpha" in="SourceAlpha" type="matrix" values="0 0 0 0 0 0 0 0 0 0 0 0 0 0 0 0 0 0 127 0 " />
			<feOffset dx="0.000000" dy="4.000000" in="hardAlpha" />
			<feGaussianBlur stdDeviation="1.33333337" />
			<feComposite k2="-1" k3="1" in2="hardAlpha" operator="out" />
			<feColorMatrix type="matrix" values="0 0 0 0 0 0 0 0 0 0 0 0 0 0 0 0 0 0 0.25 0 " />
			<feBlend result="effect_dropShadow_1" in2="BackgroundImageFix" mode="normal" />
			<feBlend result="shape" in="SourceGraphic" in2="effect_dropShadow_1" mode="normal" />
		</filter>
	</defs>
	<g id="shapes" opacity="0.300000012" filter="url(#filter_0)">
		<path id="Vector" d="M31.6988 19.7779L31.6988 31.6988L0 31.6988L0 0L11.8306 0L11.8306 19.7779L31.6988 19.7779Z" fill="rgb(255,255,255)" fill-rule="nonzero" transform="matrix(-1,8.74228e-08,-8.74228e-08,-1,99.999,31.6992)" />
		<path id="Vector" d="M31.6988 19.7779L31.6988 31.6085L0 31.6085L0 0L11.9209 0L11.9209 19.7779L31.6988 19.7779Z" fill="rgb(255,255,255)" fill-rule="nonzero" transform="matrix(-1,8.74228e-08,-8.74228e-08,-1,78.5972,53.1025)" />
		<path id="Vector" d="M31.6085 19.7779L31.6085 31.6988L0 31.6988L0 0L11.8306 0L11.8306 19.7779L31.6085 19.7779Z" fill="rgb(255,255,255)" fill-rule="nonzero" transform="matrix(-1,8.74228e-08,-8.74228e-08,-1,57.103,74.5967)" />
		<path id="Vector" d="M31.6988 19.7779L31.6988 31.6988L0 31.6988L0 0L11.9209 0L11.9209 19.7779L31.6988 19.7779Z" fill="rgb(255,255,255)" fill-rule="nonzero" transform="matrix(-1,8.74228e-08,-8.74228e-08,-1,35.6987,96)" />
	</g>
</svg>
